<?xml version="1.0" encoding="UTF-8"?>
<!DOCTYPE svg PUBLIC "-//W3C//DTD SVG 1.1//EN" "http://www.w3.org/Graphics/SVG/1.1/DTD/svg11.dtd">
<!-- Creator: CorelDRAW 2019 (64-Bit) -->
<svg xmlns="http://www.w3.org/2000/svg" xml:space="preserve" width="64.4963mm" height="18.2749mm" version="1.1" style="shape-rendering:geometricPrecision; text-rendering:geometricPrecision; image-rendering:optimizeQuality; fill-rule:evenodd; clip-rule:evenodd"
viewBox="0 0 22418.61 6352.27"
 xmlns:xlink="http://www.w3.org/1999/xlink"
 xmlns:xodm="http://www.corel.com/coreldraw/odm/2003">
 <defs>
  <style type="text/css">
   <![CDATA[
    .fil0 {fill:white}
    .fil1 {fill:white;fill-rule:nonzero}
   ]]>
  </style>
 </defs>
 <g id="Слой_x0020_1">
  <metadata id="CorelCorpID_0Corel-Layer"/>
  <g id="_2949539269088">
   <path class="fil0" d="M1586.22 0l3179.91 0c872.36,0 1586.18,713.75 1586.18,1586.18l0 3179.94c0,872.36 -713.82,1586.15 -1586.18,1586.15l-3179.91 0c-872.39,0 -1586.22,-713.79 -1586.22,-1586.15l0 -3179.94c0,-872.43 713.82,-1586.18 1586.22,-1586.18zm2319.43 2052.52l0 509.09 7.2 283.64 36.43 240.01c9.66,63.02 14.53,113.91 14.53,152.7l0 87.28c9.73,67.89 14.53,130.9 14.53,189.09 38.83,38.79 55.75,82.41 50.92,130.94l-7.26 145.43c24.23,24.23 58.15,110.29 101.78,258.16 43.66,147.9 72.75,221.84 87.28,221.84 43.62,0 111.51,-104.21 203.66,-312.73l334.56 -756.33c155.13,-344.29 254.54,-601.24 298.17,-770.97 0,-227.85 14.53,-383.02 43.66,-465.43 48.49,-140.64 147.87,-240.01 298.17,-298.2l109.08 -43.62c63.02,4.87 94.58,65.45 94.58,181.83 0,33.96 -14.56,123.64 -43.62,269.07 -38.79,193.92 -72.75,298.17 -101.85,312.73 0,53.32 -48.49,206.05 -145.43,458.2l-334.56 872.71c-116.34,305.5 -252.11,581.84 -407.28,829.12 14.53,33.93 21.79,70.32 21.79,109.08 0,58.19 -36.36,122.42 -109.04,192.74 -72.75,70.32 -113.98,112.73 -123.67,127.29 -92.11,111.51 -172.13,179.39 -240.01,203.62l-138.17 21.83c-145.47,0 -218.19,-58.22 -218.19,-174.56 0,-72.72 36.39,-145.47 109.08,-218.15l-123.6 -298.2 -43.62 -261.84c-29.13,-19.36 -58.22,-87.25 -87.28,-203.62 -24.23,-101.81 -36.36,-181.83 -36.36,-239.98 -53.36,-145.47 -84.88,-266.71 -94.58,-363.65l0.03 -6.6c-58.05,515.31 -124.96,915.11 -200.74,1199.34 -9.73,53.32 -26.7,116.34 -50.96,189.09l-94.51 167.26 -181.83 87.28c-53.36,38.79 -109.08,58.22 -167.26,58.22 -116.37,0 -259.41,-198.86 -429.11,-596.4l-385.45 -909.14 -160.03 -363.62c-72.68,-164.83 -118.77,-256.94 -138.17,-276.34 -29.06,29.06 -70.28,133.3 -123.6,312.73l-160 545.45c-92.15,349.06 -155.17,591.54 -189.13,727.24l-196.36 676.39c-14.56,43.66 -44.84,70.35 -90.9,80.02 -46.09,9.73 -73.97,24.19 -83.67,43.62 -43.62,-19.43 -65.45,-58.19 -65.45,-116.37l21.83 -138.17c24.26,-160 46.06,-276.34 65.45,-349.09 4.87,-67.89 16.96,-157.6 36.36,-269.07 63.02,-426.67 104.28,-654.56 123.64,-683.65 43.66,-208.49 82.41,-482.46 116.34,-821.82 58.22,-576.97 101.85,-894.57 130.9,-952.72l-7.26 -80.02c0,-111.51 17,-210.92 50.92,-298.2 19.43,-77.58 48.52,-116.37 87.32,-116.37l14.53 0 145.47 -21.79c106.61,0 162.4,21.79 167.23,65.45l43.66 -29.13c53.36,-33.89 89.71,-60.55 109.08,-79.95 92.15,-82.45 157.6,-123.64 196.36,-123.64 43.66,4.8 65.49,46.06 65.49,123.64l-145.47 407.24c-19.36,53.36 -29.13,133.37 -29.13,240.05l152.77 479.99c53.36,164.83 113.94,319.96 181.83,465.46 33.93,121.17 58.19,210.85 72.72,269.07l240.01 581.84c150.3,368.49 254.54,564.81 312.73,589.07 24.23,-38.79 55.75,-181.79 94.51,-429.11l123.67 -785.43c9.7,-63.05 24.23,-404.88 43.62,-1025.48 9.7,-262.19 50.78,-502.76 123.12,-721.71 20.96,-168.58 75.91,-315.89 164.9,-441.93l196.36 -94.55c58.19,-29.09 109.08,-43.62 152.73,-43.62 48.49,0 79.98,21.79 94.51,65.45 33.99,33.89 50.92,118.81 50.92,254.51l-29.06 320.03 -50.96 283.6 29.16 152.77z"/>
   <polygon class="fil1" points="12785.07,1270.43 12785.07,5051.81 12064.82,5051.81 12064.82,2951.05 11104.49,5051.81 10624.32,5051.81 9663.95,2951.05 9663.95,5051.81 8943.7,5051.81 8943.7,1270.43 9573.92,1270.43 10864.4,4061.44 12154.85,1270.43 "/>
   <path id="1" class="fil1" d="M14510.71 2260.79c156.04,0 300.11,27.01 432.17,81.02 132.05,54.02 246.06,129.06 342.1,225.1 96.04,96.04 171.05,210.05 225.1,342.1 54.02,132.05 81.02,276.09 81.02,432.17l0 1710.62 -510.2 0 -120.02 -270.08c-64.03,56 -134.07,106.02 -210.09,150.02 -68.02,40.04 -150.06,75.05 -246.1,105.04 -96.04,30.03 -204.07,45.01 -324.1,45.01 -300.11,0 -530.22,-73.03 -690.25,-219.05 -160.07,-146.06 -240.08,-333.14 -240.08,-561.23 0,-136.05 27.01,-261.08 81.02,-375.12 54.02,-114.05 145.05,-212.07 273.11,-294.1 128.02,-82.03 297.09,-146.06 507.18,-192.08 210.09,-46.02 473.18,-69.03 789.28,-69.03 0,-152.04 -41.02,-270.08 -123.05,-354.13 -82.03,-84.01 -191.07,-126.04 -327.12,-126.04 -92.04,0 -165.07,16.02 -219.09,48.04 -54.02,32.01 -97.01,66.01 -129.03,102.02 -36.01,44.04 -60.03,94.02 -72.02,150.06l-690.25 0c15.99,-128.05 53.01,-248.08 111.02,-360.11 58.05,-112.06 137.06,-210.09 237.09,-294.14 100.04,-84.01 219.09,-151.03 357.12,-201.05 138.06,-50.02 293.13,-75.05 465.19,-75.05zm-210.09 2280.82c180.05,0 325.14,-53.01 435.15,-159.02 110.05,-106.05 165.07,-243.11 165.07,-411.17l0 -120.02c-204.07,0 -368.14,9 -492.19,27.01 -124.02,18.01 -221.07,44.01 -291.08,78 -70.04,34.03 -117.07,75.05 -141.05,123.05 -24.02,48.04 -36.01,102.05 -36.01,162.08 0,76.02 33.99,145.05 102.02,207.06 68.02,62.01 154.05,93.02 258.09,93.02z"/>
   <path id="2" class="fil1" d="M17376.77 2260.79c32.01,0 60.03,2.02 84.01,6.01 24.02,4 46.02,7.99 66.04,11.99 19.99,4 40.01,7.99 59.99,12.03l0 720.25c-19.99,-4 -41.99,-7.99 -66.01,-12.03 -20.02,-4 -45.01,-7.99 -75.01,-11.99 -30.03,-4 -63.05,-6.01 -99.06,-6.01 -168.06,0 -305.08,55.02 -411.14,165.07 -106.05,110.05 -159.06,255.1 -159.06,435.15l0 1470.54 -690.25 0 0 -2760.98 510.2 0 120.02 300.08c48.04,-59.99 106.05,-114.01 174.08,-162.05 56.03,-44.01 125.03,-83.04 207.06,-117.04 82.03,-34.03 175.08,-51.03 279.12,-51.03z"/>
   <polygon id="3" class="fil1" points="19552.55,5051.81 18592.21,3791.36 18592.21,5051.81 17901.96,5051.81 17901.96,1270.43 18592.21,1270.43 18592.21,3431.22 19432.52,2290.83 20212.8,2290.83 19222.43,3611.31 20332.83,5051.81 "/>
   <path id="4" class="fil1" d="M20918.07 4181.5c15.99,92.04 60.03,170.04 132.05,234.07 72.02,64.03 168.06,96.04 288.09,96.04 120.06,0 215.09,-31.01 285.1,-93.02 70.04,-62.05 105.04,-131.08 105.04,-207.1 0,-64.03 -35,-114.05 -105.04,-150.06 -70.01,-36.01 -157.04,-69 -261.08,-99.03 -104.04,-30 -217.07,-61 -339.11,-93.02 -122.04,-32.01 -235.11,-79.04 -339.15,-141.05 -104.04,-62.05 -191.07,-142.06 -261.08,-240.08 -70.04,-98.06 -105.04,-227.08 -105.04,-387.15 0,-112.03 23.01,-219.09 69.03,-321.11 46.02,-102.05 113.04,-191.07 201.08,-267.09 88.01,-76.05 192.05,-137.06 312.11,-183.08 120.02,-46.02 256.07,-69.03 408.15,-69.03 332.13,0 587.19,80.05 765.27,240.08 178.07,160.07 283.12,360.14 315.13,600.23l-660.26 0c-15.99,-60.03 -59.02,-120.06 -129.03,-180.05 -70.04,-60.03 -157.08,-90.03 -261.11,-90.03 -104.04,0 -185.06,26 -243.07,78 -58.01,52.04 -87.04,116.06 -87.04,192.08 0,64.03 35,114.05 105.04,150.06 70.01,36.01 157.04,69.03 261.08,99.03 104.04,30 217.07,62.01 339.11,96.04 122.08,33.99 235.11,83.04 339.15,147.03 104.04,64.03 191.07,147.07 261.08,249.12 70.04,102.02 105.04,235.08 105.04,399.14 0,112.03 -24.02,219.05 -72.02,321.11 -48.04,102.02 -116.06,191.07 -204.07,267.09 -88.05,76.02 -195.07,137.06 -321.11,183.08 -126.07,45.99 -267.09,69 -423.16,69 -360.14,0 -633.21,-82.03 -819.28,-246.06 -186.07,-164.06 -293.13,-382.15 -321.14,-654.24l660.26 0z"/>
  </g>
 </g>
</svg>
