<?xml version="1.0" encoding="UTF-8"?>
<!DOCTYPE svg PUBLIC "-//W3C//DTD SVG 1.1//EN" "http://www.w3.org/Graphics/SVG/1.1/DTD/svg11.dtd">
<!-- Creator: CorelDRAW 2019 (64-Bit) -->
<svg xmlns="http://www.w3.org/2000/svg" xml:space="preserve" width="97.8821mm" height="27.7351mm" version="1.1" style="shape-rendering:geometricPrecision; text-rendering:geometricPrecision; image-rendering:optimizeQuality; fill-rule:evenodd; clip-rule:evenodd"
viewBox="0 0 6087.64 1724.95"
 xmlns:xlink="http://www.w3.org/1999/xlink"
 xmlns:xodm="http://www.corel.com/coreldraw/odm/2003">
 <defs>
  <style type="text/css">
   <![CDATA[
    .fil2 {fill:#00C389;fill-rule:nonzero}
    .fil1 {fill:white;fill-rule:nonzero}
    .fil0 {fill:url(#id0);fill-rule:nonzero}
   ]]>
  </style>
  <linearGradient id="id0" gradientUnits="userSpaceOnUse" x1="252.61" y1="1472.34" x2="1472.34" y2="252.62">
   <stop offset="0" style="stop-opacity:1; stop-color:#00AF66"/>
   <stop offset="1" style="stop-opacity:1; stop-color:#00C389"/>
  </linearGradient>
 </defs>
 <g id="Слой_x0020_1">
  <metadata id="CorelCorpID_0Corel-Layer"/>
  <g id="_2948853567408">
   <g>
    <path class="fil0" d="M430.72 0l863.5 0c236.9,0 430.73,193.83 430.73,430.73l0 863.49c0,236.9 -193.83,430.73 -430.73,430.73l-863.5 0c-236.9,0 -430.72,-193.83 -430.72,-430.73l0 -863.49c0,-236.9 193.83,-430.73 430.72,-430.73z"/>
    <path class="fil1" d="M1060.56 557.35l0 138.25 1.97 77.01 9.88 65.17c2.63,17.12 3.95,30.95 3.95,41.48l0 23.7c2.64,18.43 3.95,35.54 3.95,51.35 10.54,10.53 15.14,22.38 13.83,35.55l-1.98 39.49c6.59,6.59 15.8,29.95 27.65,70.11 11.85,40.16 19.75,60.23 23.7,60.23 11.85,0 30.28,-28.3 55.3,-84.92l90.85 -205.39c42.14,-93.48 69.13,-163.26 80.98,-209.35 0,-61.88 3.95,-104.01 11.85,-126.39 13.17,-38.18 40.15,-65.17 80.97,-80.97l29.62 -11.85c17.12,1.31 25.67,17.77 25.67,49.37 0.01,9.22 -3.95,33.57 -11.85,73.07 -10.53,52.67 -19.75,80.98 -27.65,84.92 0,14.49 -13.17,55.96 -39.49,124.42l-90.85 237c-31.59,82.95 -68.46,157.99 -110.6,225.14 3.95,9.22 5.92,19.09 5.92,29.62 0,15.8 -9.87,33.25 -29.62,52.34 -19.75,19.09 -30.94,30.61 -33.57,34.56 -25.02,30.28 -46.74,48.71 -65.17,55.3l-37.53 5.92c-39.5,0 -59.25,-15.8 -59.25,-47.39 0,-19.75 9.88,-39.5 29.62,-59.25l-33.57 -80.97 -11.85 -71.1c-7.9,-5.26 -15.8,-23.7 -23.7,-55.3 -6.59,-27.65 -9.88,-49.37 -9.88,-65.17 -14.48,-39.51 -23.04,-72.42 -25.68,-98.75l0.01 -1.78c-15.76,139.93 -33.93,248.48 -54.51,325.67 -2.64,14.48 -7.25,31.6 -13.83,51.35l-25.67 45.43 -49.37 23.7c-14.48,10.54 -29.62,15.8 -45.43,15.8 -31.59,0 -70.43,-53.98 -116.52,-161.95l-104.67 -246.87 -43.45 -98.74c-19.75,-44.76 -32.26,-69.78 -37.52,-75.04 -7.9,7.9 -19.09,36.2 -33.57,84.92l-43.45 148.12c-25.01,94.79 -42.13,160.62 -51.35,197.48l-53.32 183.67c-3.95,11.85 -12.17,19.09 -24.68,21.72 -12.51,2.64 -20.08,6.58 -22.72,11.85 -11.85,-5.27 -17.77,-15.8 -17.77,-31.6l5.93 -37.52c6.59,-43.45 12.51,-75.05 17.77,-94.8 1.32,-18.43 4.61,-42.79 9.87,-73.07 17.12,-115.87 28.31,-177.74 33.58,-185.65 11.85,-56.61 22.38,-131 31.6,-223.16 15.8,-156.68 27.65,-242.91 35.54,-258.71l-1.97 -21.72c0,-30.28 4.61,-57.27 13.82,-80.97 5.27,-21.06 13.17,-31.6 23.7,-31.6l3.95 0 39.51 -5.92c28.96,0 44.1,5.92 45.42,17.77l11.85 -7.9c14.48,-9.22 24.36,-16.46 29.62,-21.72 25.03,-22.39 42.8,-33.58 53.33,-33.58 11.85,1.31 17.77,12.51 17.77,33.58l-39.5 110.59c-5.27,14.48 -7.9,36.21 -7.9,65.17l41.48 130.34c14.48,44.77 30.94,86.9 49.38,126.4 9.21,32.92 15.8,57.27 19.75,73.07l65.17 158c40.82,100.06 69.12,153.38 84.93,159.97 6.58,-10.54 15.13,-49.38 25.67,-116.52l33.57 -213.29c2.64,-17.12 6.59,-109.93 11.85,-278.46 2.63,-71.2 13.78,-136.53 33.44,-195.98 5.68,-45.77 20.61,-85.78 44.77,-120.01l53.32 -25.67c15.8,-7.9 29.62,-11.85 41.47,-11.85 13.17,0 21.72,5.92 25.68,17.77 9.22,9.2 13.82,32.25 13.82,69.12l-7.9 86.9 -13.83 77.02 7.9 41.47z"/>
   </g>
   <polygon class="fil2" points="3471.72,345 3471.72,1371.81 3276.13,1371.81 3276.13,801.36 3015.35,1371.81 2884.96,1371.81 2624.19,801.36 2624.19,1371.81 2428.61,1371.81 2428.61,345 2599.74,345 2950.16,1102.89 3300.58,345 "/>
   <path id="1" class="fil2" d="M3940.3 613.93c42.38,0 81.49,7.33 117.35,22 35.85,14.67 66.82,35.04 92.9,61.12 26.08,26.08 46.45,57.05 61.12,92.9 14.67,35.85 22,74.97 22,117.35l0 464.51 -138.54 0 -32.6 -73.34c-17.38,15.21 -36.4,28.8 -57.04,40.75 -18.47,10.87 -40.75,20.37 -66.83,28.52 -26.08,8.15 -55.41,12.22 -88.01,12.22 -81.49,0 -143.97,-19.83 -187.43,-59.49 -43.47,-39.66 -65.2,-90.45 -65.2,-152.39 0,-36.94 7.33,-70.89 22,-101.87 14.67,-30.97 39.39,-57.59 74.16,-79.86 34.77,-22.27 80.68,-39.66 137.72,-52.16 57.04,-12.49 128.49,-18.74 214.33,-18.74 0,-41.29 -11.14,-73.34 -33.41,-96.16 -22.28,-22.82 -51.88,-34.23 -88.82,-34.23 -25,0 -44.82,4.35 -59.49,13.04 -14.67,8.69 -26.35,17.93 -35.04,27.71 -9.78,11.95 -16.3,25.54 -19.56,40.75l-187.43 0c4.35,-34.77 14.4,-67.37 30.15,-97.79 15.76,-30.43 37.22,-57.04 64.38,-79.86 27.16,-22.82 59.49,-41.02 96.97,-54.6 37.49,-13.58 79.6,-20.37 126.32,-20.37zm-57.04 619.35c48.9,0 88.28,-14.4 118.17,-43.19 29.88,-28.8 44.82,-66.01 44.82,-111.64l0 -32.6c-55.41,0 -99.96,2.44 -133.65,7.33 -33.68,4.89 -60.03,11.95 -79.05,21.19 -19.01,9.24 -31.78,20.37 -38.3,33.41 -6.52,13.04 -9.78,27.71 -9.78,44.01 0,20.64 9.24,39.39 27.71,56.23 18.47,16.84 41.84,25.26 70.09,25.26z"/>
   <path id="2" class="fil2" d="M4718.56 613.93c8.69,0 16.29,0.55 22.82,1.63 6.52,1.09 12.49,2.18 17.92,3.26 5.44,1.09 10.87,2.18 16.3,3.26l0 195.59c-5.44,-1.09 -11.41,-2.17 -17.93,-3.26 -5.43,-1.09 -12.22,-2.18 -20.37,-3.26 -8.15,-1.09 -17.11,-1.63 -26.89,-1.63 -45.63,0 -82.85,14.94 -111.64,44.82 -28.8,29.88 -43.19,69.27 -43.19,118.17l0 399.31 -187.44 0 0 -749.74 138.54 0 32.6 81.5c13.04,-16.3 28.8,-30.97 47.27,-44.01 15.21,-11.95 33.95,-22.55 56.23,-31.78 22.27,-9.24 47.53,-13.86 75.79,-13.86z"/>
   <polygon id="3" class="fil2" points="5309.38,1371.81 5048.61,1029.54 5048.61,1371.81 4861.17,1371.81 4861.17,345 5048.61,345 5048.61,931.75 5276.79,622.07 5488.67,622.07 5219.74,980.64 5521.27,1371.81 "/>
   <path id="4" class="fil2" d="M5680.18 1135.48c4.35,24.99 16.29,46.18 35.85,63.56 19.56,17.39 45.64,26.08 78.23,26.08 32.6,0 58.41,-8.42 77.42,-25.26 19.01,-16.84 28.52,-35.58 28.52,-56.23 0,-17.38 -9.51,-30.97 -28.52,-40.74 -19.01,-9.78 -42.65,-18.75 -70.9,-26.89 -28.25,-8.15 -58.95,-16.57 -92.08,-25.26 -33.14,-8.69 -63.84,-21.46 -92.09,-38.31 -28.25,-16.84 -51.88,-38.57 -70.89,-65.19 -19.02,-26.62 -28.53,-61.66 -28.53,-105.13 0,-30.43 6.25,-59.49 18.75,-87.2 12.49,-27.71 30.7,-51.89 54.6,-72.53 23.91,-20.65 52.16,-37.22 84.75,-49.71 32.6,-12.49 69.54,-18.75 110.84,-18.75 90.18,0 159.45,21.73 207.81,65.2 48.35,43.46 76.87,97.79 85.57,162.98l-179.29 0c-4.35,-16.3 -16.03,-32.6 -35.04,-48.9 -19.02,-16.3 -42.65,-24.45 -70.9,-24.45 -28.25,0 -50.25,7.07 -66.01,21.19 -15.76,14.12 -23.63,31.51 -23.63,52.16 0,17.38 9.5,30.97 28.52,40.74 19.01,9.78 42.65,18.75 70.89,26.89 28.25,8.15 58.95,16.84 92.09,26.08 33.14,9.24 63.84,22.55 92.08,39.93 28.25,17.38 51.89,39.93 70.9,67.64 19.01,27.71 28.52,63.84 28.52,108.38 0,30.42 -6.52,59.49 -19.56,87.2 -13.04,27.71 -31.51,51.88 -55.41,72.53 -23.9,20.64 -52.97,37.21 -87.2,49.71 -34.23,12.49 -72.53,18.74 -114.9,18.74 -97.79,0 -171.95,-22.27 -222.48,-66.82 -50.53,-44.55 -79.59,-103.77 -87.2,-177.66l179.29 0z"/>
  </g>
 </g>
</svg>
